<svg width="32" height="32" viewBox="0 0 32 32" fill="none" xmlns="http://www.w3.org/2000/svg">
  <!-- Warehouse building background -->
  <rect x="4" y="12" width="24" height="16" rx="2" fill="url(#gradient-bg)" stroke="url(#gradient-stroke)" stroke-width="0.5"/>
  
  <!-- Warehouse roof -->
  <path d="M2 14L16 4L30 14L28 14L16 6L4 14Z" fill="url(#gradient-roof)"/>
  
  <!-- Main warehouse box/crate -->
  <g transform="translate(8, 16)">
    <!-- Box front face -->
    <rect x="0" y="0" width="8" height="6" fill="url(#gradient-box)" stroke="#1f2937" stroke-width="0.3"/>
    <!-- Box top face -->
    <path d="M0 0L2 -2L10 -2L8 0Z" fill="url(#gradient-box-top)"/>
    <!-- Box right face -->
    <path d="M8 0L10 -2L10 4L8 6Z" fill="url(#gradient-box-side)"/>
  </g>
  
  <!-- Warehouse windows/doors -->
  <rect x="6" y="20" width="2" height="6" rx="1" fill="#374151" opacity="0.8"/>
  <rect x="10" y="20" width="2" height="6" rx="1" fill="#374151" opacity="0.8"/>
  <rect x="14" y="18" width="4" height="8" rx="1" fill="#1f2937" opacity="0.9"/>
  <rect x="20" y="20" width="2" height="6" rx="1" fill="#374151" opacity="0.8"/>
  <rect x="24" y="20" width="2" height="6" rx="1" fill="#374151" opacity="0.8"/>
  
  <!-- Small detail elements -->
  <circle cx="26" cy="16" r="1" fill="#f59e0b" opacity="0.8"/>
  <rect x="25" y="14" width="2" height="1" rx="0.5" fill="#ef4444" opacity="0.6"/>
  
  <defs>
    <!-- Gradients for modern look -->
    <linearGradient id="gradient-bg" x1="0%" y1="0%" x2="100%" y2="100%">
      <stop offset="0%" style="stop-color:#6366f1;stop-opacity:0.9"/>
      <stop offset="100%" style="stop-color:#3730a3;stop-opacity:1"/>
    </linearGradient>
    
    <linearGradient id="gradient-stroke" x1="0%" y1="0%" x2="100%" y2="100%">
      <stop offset="0%" style="stop-color:#4f46e5;stop-opacity:0.8"/>
      <stop offset="100%" style="stop-color:#312e81;stop-opacity:1"/>
    </linearGradient>
    
    <linearGradient id="gradient-roof" x1="0%" y1="0%" x2="100%" y2="100%">
      <stop offset="0%" style="stop-color:#7c3aed;stop-opacity:1"/>
      <stop offset="100%" style="stop-color:#5b21b6;stop-opacity:1"/>
    </linearGradient>
    
    <linearGradient id="gradient-box" x1="0%" y1="0%" x2="100%" y2="100%">
      <stop offset="0%" style="stop-color:#f59e0b;stop-opacity:1"/>
      <stop offset="100%" style="stop-color:#d97706;stop-opacity:1"/>
    </linearGradient>
    
    <linearGradient id="gradient-box-top" x1="0%" y1="0%" x2="100%" y2="100%">
      <stop offset="0%" style="stop-color:#fbbf24;stop-opacity:1"/>
      <stop offset="100%" style="stop-color:#f59e0b;stop-opacity:1"/>
    </linearGradient>
    
    <linearGradient id="gradient-box-side" x1="0%" y1="0%" x2="100%" y2="100%">
      <stop offset="0%" style="stop-color:#d97706;stop-opacity:1"/>
      <stop offset="100%" style="stop-color:#b45309;stop-opacity:1"/>
    </linearGradient>
  </defs>
</svg>